<?xml version="1.0" standalone="no"?>
<!DOCTYPE svg PUBLIC "-//W3C//DTD SVG 20010904//EN"
 "http://www.w3.org/TR/2001/REC-SVG-20010904/DTD/svg10.dtd">
<svg version="1.0" xmlns="http://www.w3.org/2000/svg"
 width="300.000000pt" height="300.000000pt" viewBox="0 0 300.000000 300.000000"
 preserveAspectRatio="xMidYMid meet">
<metadata>
Created by potrace 1.11, written by Peter Selinger 2001-2013
</metadata>
<g transform="translate(0.000000,300.000000) scale(0.100000,-0.100000)"
fill="#000000" stroke="none">
<path d="M1669 2936 c-2 -2 -31 -7 -64 -11 -297 -33 -632 -180 -895 -392 -87
-71 -177 -153 -166 -153 6 0 96 70 116 90 15 15 83 62 145 100 170 104 380
190 524 215 19 3 37 8 41 10 36 22 370 26 475 5 418 -80 719 -360 823 -764
l26 -102 138 90 c116 77 137 94 132 111 -19 63 -73 176 -122 255 -184 291
-465 472 -832 535 -41 7 -335 16 -341 11z"/>
<path d="M1485 2723 c-104 -14 -213 -38 -295 -65 -590 -194 -1062 -726 -1170
-1320 -15 -80 -18 -138 -15 -258 3 -170 5 -185 42 -310 96 -333 352 -581 693
-671 103 -27 165 -34 305 -34 147 1 212 9 335 41 299 78 548 222 780 452 l95
94 -90 -75 c-122 -102 -238 -178 -370 -242 -110 -54 -300 -116 -405 -131 -67
-11 -329 -11 -387 -2 -366 62 -647 305 -746 648 -40 137 -51 316 -28 445 6 33
13 76 16 95 3 19 22 82 41 140 168 496 612 902 1134 1035 11 3 151 27 177 31
44 6 224 5 268 -1 188 -27 342 -86 474 -183 42 -30 143 -131 184 -182 26 -34
26 -33 -4 20 -139 244 -389 410 -697 463 -77 14 -270 19 -337 10z"/>
<path d="M1789 2400 c-3 -177 0 -1102 3 -1106 5 -5 309 193 318 207 4 6 5 890
1 924 -1 6 -61 10 -161 10 l-160 0 -1 -35z"/>
<path d="M520 2359 c0 -5 5 -7 10 -4 6 3 10 8 10 11 0 2 -4 4 -10 4 -5 0 -10
-5 -10 -11z"/>
<path d="M1300 1544 l0 -583 143 94 c78 51 152 101 164 109 l22 16 0 475 -1
475 -164 -1 -164 -1 0 -584z"/>
<path d="M2805 1821 c-105 -69 -310 -205 -455 -301 -146 -96 -430 -283 -632
-417 -202 -134 -378 -248 -391 -254 -20 -9 -38 -3 -118 39 -52 27 -161 84
-244 127 -142 73 -196 102 -428 224 -54 29 -95 46 -90 38 4 -8 51 -62 104
-119 52 -56 122 -132 154 -168 63 -69 94 -103 197 -215 35 -38 86 -94 114
-124 70 -78 70 -78 171 -188 51 -55 105 -114 120 -131 l28 -32 90 86 c50 48
166 159 259 248 92 88 198 189 235 224 36 35 141 135 232 223 92 87 186 178
210 200 24 23 125 119 224 214 99 95 233 224 298 286 100 96 118 118 115 140
-3 25 -9 22 -193 -100z"/>
<path d="M811 1541 c0 -242 3 -332 12 -339 15 -11 304 -162 311 -162 4 0 6
187 6 415 l0 415 -165 0 -164 0 0 -329z"/>
</g>
</svg>
